<svg xmlns="http://www.w3.org/2000/svg" width="24" height="24" viewBox="0 0 24 24">
  <defs/>
  <path fill="currentColor" d="M5,2 L19,2 Q22,2 22,5 L22,19 Q22,22 19,22 L5,22 Q2,22 2,19 L2,5 Q2,2 5,2 Z M5,4 Q4,4 4,5 L4,19 Q4,20 5,20 L19,20 Q20,20 20,19 L20,5 Q20,4 19,4 Z"/>
  <path fill="currentColor" d="M8,3 L8,21 Q8,21.414 7.707,21.707 Q7.414,22 7,22 Q6.586,22 6.293,21.707 Q6,21.414 6,21 L6,3 Q6,2.586 6.293,2.293 Q6.586,2 7,2 Q7.414,2 7.707,2.293 Q8,2.586 8,3 Z"/>
  <path fill="currentColor" d="M3,6.5 L7,6.5 Q7.414,6.5 7.707,6.793 Q8,7.086 8,7.5 Q8,7.914 7.707,8.207 Q7.414,8.5 7,8.5 L3,8.5 Q2.586,8.5 2.293,8.207 Q2,7.914 2,7.5 Q2,7.086 2.293,6.793 Q2.586,6.5 3,6.5 Z"/>
  <path fill="currentColor" d="M3,11 L21,11 Q21.414,11 21.707,11.293 Q22,11.586 22,12 Q22,12.414 21.707,12.707 Q21.414,13 21,13 L3,13 Q2.586,13 2.293,12.707 Q2,12.414 2,12 Q2,11.586 2.293,11.293 Q2.586,11 3,11 Z"/>
  <path fill="currentColor" d="M3,15.5 L7,15.5 Q7.414,15.5 7.707,15.793 Q8,16.086 8,16.5 Q8,16.914 7.707,17.207 Q7.414,17.5 7,17.5 L3,17.5 Q2.586,17.5 2.293,17.207 Q2,16.914 2,16.5 Q2,16.086 2.293,15.793 Q2.586,15.5 3,15.5 Z"/>
  <path fill="currentColor" d="M18,3 L18,21 Q18,21.414 17.707,21.707 Q17.414,22 17,22 Q16.586,22 16.293,21.707 Q16,21.414 16,21 L16,3 Q16,2.586 16.293,2.293 Q16.586,2 17,2 Q17.414,2 17.707,2.293 Q18,2.586 18,3 Z"/>
  <path fill="currentColor" d="M17,6.5 L21,6.5 Q21.414,6.5 21.707,6.793 Q22,7.086 22,7.5 Q22,7.914 21.707,8.207 Q21.414,8.5 21,8.5 L17,8.5 Q16.586,8.5 16.293,8.207 Q16,7.914 16,7.5 Q16,7.086 16.293,6.793 Q16.586,6.5 17,6.5 Z"/>
  <path fill="currentColor" d="M17,15.5 L21,15.5 Q21.414,15.5 21.707,15.793 Q22,16.086 22,16.5 Q22,16.914 21.707,17.207 Q21.414,17.5 21,17.5 L17,17.5 Q16.586,17.5 16.293,17.207 Q16,16.914 16,16.5 Q16,16.086 16.293,15.793 Q16.586,15.5 17,15.5 Z"/>
</svg>

