<svg xmlns="http://www.w3.org/2000/svg" width="24" height="24" viewBox="0 0 24 24">
  <defs/>
  <path fill="currentColor" d="M10.615,4.083 Q14.539,3.615 17.948,5.616 Q21.357,7.616 22.863,11.27 Q22.869,11.286 22.875,11.303 Q23.134,11.999 22.875,12.695 Q22.869,12.712 22.862,12.728 Q22.257,14.196 21.284,15.45 Q21.03,15.777 20.619,15.829 Q20.208,15.881 19.881,15.627 Q19.554,15.373 19.502,14.962 Q19.45,14.551 19.704,14.224 Q20.5,13.198 21,11.999 Q19.749,8.991 16.936,7.341 Q14.108,5.681 10.851,6.069 Q10.44,6.118 10.115,5.862 Q9.789,5.606 9.74,5.194 Q9.691,4.783 9.947,4.458 Q10.203,4.132 10.615,4.083 Z"/>
  <path fill="currentColor" d="M14.779,14.877 Q11.951,17.608 9.171,14.829 Q6.392,12.049 9.123,9.221 Q9.41,8.923 9.825,8.916 Q10.239,8.909 10.537,9.197 Q10.835,9.484 10.842,9.899 Q10.849,10.313 10.561,10.611 Q9.196,12.025 10.586,13.414 Q11.975,14.804 13.389,13.439 Q13.687,13.151 14.101,13.158 Q14.516,13.165 14.803,13.463 Q15.091,13.761 15.084,14.175 Q15.077,14.59 14.779,14.877 Z"/>
  <path fill="currentColor" d="M17.989,18.359 Q13.369,21.096 8.277,19.394 Q3.184,17.693 1.138,12.729 Q1.131,12.713 1.125,12.696 Q0.866,12 1.125,11.304 Q1.131,11.287 1.138,11.271 Q2.63,7.65 5.997,5.649 Q6.353,5.438 6.755,5.54 Q7.156,5.642 7.368,5.998 Q7.579,6.354 7.477,6.756 Q7.375,7.157 7.019,7.369 Q4.241,9.02 3,12 Q4.702,16.091 8.911,17.497 Q13.136,18.909 16.969,16.639 Q17.326,16.428 17.727,16.53 Q18.128,16.633 18.339,16.989 Q18.55,17.346 18.448,17.747 Q18.345,18.148 17.989,18.359 Z"/>
  <path fill="currentColor" d="M2.707,1.293 L22.707,21.293 Q23,21.586 23,22 Q23,22.414 22.707,22.707 Q22.414,23 22,23 Q21.586,23 21.293,22.707 L1.293,2.707 Q1,2.414 1,2 Q1,1.586 1.293,1.293 Q1.586,1 2,1 Q2.414,1 2.707,1.293 Z"/>
</svg>

